<svg id="e2Vnl1i8m3q1" xmlns="http://www.w3.org/2000/svg" xmlns:xlink="http://www.w3.org/1999/xlink" viewBox="0 0 900 600" shape-rendering="geometricPrecision" text-rendering="geometricPrecision">
<style><![CDATA[
#e2Vnl1i8m3q3_ts {animation: e2Vnl1i8m3q3_ts__ts 3000ms linear infinite normal forwards}@keyframes e2Vnl1i8m3q3_ts__ts { 0% {transform: translate(900px,0px) scale(1.236266,0.888356)} 50% {transform: translate(900px,0px) scale(0.685293,0.690618)} 100% {transform: translate(900px,0px) scale(1.22946,0.888356)}} #e2Vnl1i8m3q5_ts {animation: e2Vnl1i8m3q5_ts__ts 3000ms linear infinite normal forwards}@keyframes e2Vnl1i8m3q5_ts__ts { 0% {transform: translate(0px,600px) scale(0.978835,0.833686)} 50% {transform: translate(0px,600px) scale(0.762298,0.737022)} 100% {transform: translate(0px,600px) scale(0.978836,0.833686)}}
]]></style>
<rect width="900" height="600" rx="0" ry="0" fill="#2aa3ff"/><g id="e2Vnl1i8m3q3_ts" transform="translate(900,0) scale(1.236266,0.888356)"><g transform="translate(0,0)"><path d="M0,459.7c-55.1-15.5-110.2-31-169.9-49.5-59.8-18.5-124.2-40.1-155.2-85.1-30.9-45.1-28.5-113.6-45.4-171.6-16.8-58.1-53-105.8-89.2-153.5L0,0Z" fill="#3cfa8d"/></g></g><g id="e2Vnl1i8m3q5_ts" transform="translate(0,600) scale(0.978835,0.833686)"><g transform="translate(0,0)"><path d="M0,-459.7c58.6,21.8,117.2,43.6,158.4,77.2c41.2,33.7,65,79.2,112.4,111.7s118.5,51.9,153.9,94.9c35.4,42.9,35.2,109.4,35,175.9L0,0Z" fill="#3cfa8d"/></g></g></svg>
